<svg width="20" height="20" viewBox="0 0 20 20" fill="none" xmlns="http://www.w3.org/2000/svg">
<path fill-rule="evenodd" clip-rule="evenodd" d="M16.1686 0.167061L16.0089 0.326625V9.30467V18.2827L14.8938 17.1758C13.7445 16.035 13.6373 15.9549 13.3688 16.0362C13.0936 16.1197 12.9387 16.4441 13.048 16.708C13.0782 16.7808 13.8162 17.5512 14.688 18.4202L16.273 20H16.5041H16.7352L18.3676 18.3684C19.9969 16.74 20 16.7364 20 16.5389C20 16.3864 19.9685 16.3056 19.863 16.1876C19.7461 16.0568 19.6945 16.0344 19.5112 16.0344H19.2964L18.1805 17.149C17.5668 17.762 17.049 18.2636 17.0298 18.2636C17.0107 18.2636 16.995 14.2172 16.995 9.27168V0.279788L16.8491 0.143642C16.6355 -0.0558135 16.3829 -0.0471313 16.1686 0.167061ZM0.297725 1.03875C-0.0134362 1.16528 -0.102366 1.60413 0.135031 1.84141L0.272276 1.97859H6.4754C11.997 1.97859 12.6907 1.97061 12.7895 1.90589C13.0376 1.74342 13.0612 1.34193 12.8351 1.12961L12.7146 1.01651L6.55579 1.0075C3.16837 1.00252 0.352285 1.0166 0.297725 1.03875ZM2.22249 4.08587C1.94185 4.25759 1.91391 4.65266 2.16732 4.86577L2.30569 4.98216H7.49214C12.0957 4.98216 12.691 4.97399 12.7895 4.90946C13.0376 4.74699 13.0612 4.34549 12.8351 4.13318L12.7146 4.02008L7.54181 4.00816C2.52187 3.99661 2.36462 3.99891 2.22249 4.08587ZM4.31751 7.03294C4.068 7.12548 3.93085 7.45086 4.03518 7.70264C4.15933 8.00229 3.8985 7.98573 8.49638 7.98573C12.1933 7.98573 12.6914 7.97728 12.7895 7.91303C13.0376 7.75056 13.0612 7.34906 12.8351 7.13675L12.7146 7.02364L8.55131 7.01524C6.26144 7.0106 4.35625 7.01858 4.31751 7.03294ZM6.30778 10.0492C5.99652 10.1765 5.90769 10.6148 6.14509 10.8521L6.28233 10.9893H9.48043C12.2889 10.9893 12.6921 10.9804 12.7895 10.9166C13.0376 10.7541 13.0612 10.3526 12.8351 10.1403L12.7147 10.0272L9.56082 10.018C7.82616 10.0129 6.36234 10.0269 6.30778 10.0492ZM8.23255 13.0962C7.95191 13.2687 7.92401 13.6634 8.17738 13.8765L8.31575 13.9929H10.4972C12.3876 13.9929 12.6934 13.9831 12.7895 13.9202C13.0376 13.7577 13.0612 13.3562 12.8351 13.1439L12.7147 13.0308L10.5468 13.0184C8.47999 13.0067 8.37219 13.0103 8.23255 13.0962Z" fill="#1A1A1A"/>
</svg>
