<svg width="25" height="24" viewBox="0 0 25 24" fill="none" xmlns="http://www.w3.org/2000/svg">
<path d="M21.5 12C21.5 16.9706 17.4706 21 12.5 21C10.6041 21 8.84516 20.4138 7.39449 19.4127L4.31818 20.1818L5.12432 17.1588C4.10069 15.698 3.5 13.9192 3.5 12C3.5 7.02944 7.52944 3 12.5 3C17.4706 3 21.5 7.02944 21.5 12Z" fill="white"/>
<path fill-rule="evenodd" clip-rule="evenodd" d="M12.5 22.5C18.299 22.5 23 17.799 23 12C23 6.20101 18.299 1.5 12.5 1.5C6.70101 1.5 2 6.20101 2 12C2 13.8832 2.49575 15.6505 3.36386 17.1787L2 22.5L7.48615 21.2278C8.97603 22.0391 10.6842 22.5 12.5 22.5ZM12.5 20.8846C17.4068 20.8846 21.3846 16.9068 21.3846 12C21.3846 7.09316 17.4068 3.11538 12.5 3.11538C7.59316 3.11538 3.61538 7.09316 3.61538 12C3.61538 13.8945 4.20838 15.6506 5.21888 17.0927L4.42308 20.0769L7.45995 19.3177C8.89202 20.3059 10.6284 20.8846 12.5 20.8846Z" fill="#929292"/>
<path d="M9.87502 7.12501C9.62537 6.62357 9.2424 6.66797 8.85551 6.66797C8.16407 6.66797 7.08594 7.49618 7.08594 9.03756C7.08594 10.3008 7.64259 11.6836 9.51831 13.7522C11.3285 15.7485 13.707 16.7812 15.6817 16.746C17.6563 16.7109 18.0625 15.0117 18.0625 14.4378C18.0625 14.1835 17.9047 14.0566 17.796 14.0221C17.1231 13.6992 15.882 13.0974 15.5996 12.9844C15.3172 12.8713 15.1698 13.0243 15.0781 13.1074C14.8221 13.3515 14.3144 14.0707 14.1406 14.2324C13.9668 14.3942 13.7077 14.3123 13.5999 14.2512C13.2031 14.092 12.1272 13.6134 11.2696 12.7821C10.209 11.7539 10.1467 11.4002 9.94693 11.0853C9.78707 10.8334 9.90437 10.6789 9.96291 10.6113C10.1914 10.3477 10.507 9.94058 10.6485 9.73829C10.79 9.53599 10.6776 9.22885 10.6102 9.03756C10.3203 8.21485 10.0747 7.52615 9.87502 7.12501Z" fill="#929292"/>
</svg>
