<svg width="25" height="24" viewBox="0 0 25 24" fill="none" xmlns="http://www.w3.org/2000/svg">
<path fill-rule="evenodd" clip-rule="evenodd" d="M12.261 20.8538C10.0904 19.5179 8.07111 17.9456 6.23929 16.1652C4.95144 14.8829 3.97101 13.3198 3.3731 11.5954C2.29714 8.25031 3.55393 4.42083 7.07112 3.28752C8.91961 2.69243 10.9384 3.03255 12.4961 4.20148C14.0543 3.03398 16.0725 2.69398 17.9211 3.28752C21.4383 4.42083 22.7041 8.25031 21.6281 11.5954C21.0302 13.3198 20.0498 14.8829 18.7619 16.1652C16.9301 17.9456 14.9108 19.5179 12.7402 20.8538L12.5051 21L12.261 20.8538Z" stroke="#929292" stroke-width="1.5" stroke-linecap="round" stroke-linejoin="round"/>
<path d="M16.2393 7.05301C17.3046 7.39331 18.0615 8.34971 18.1561 9.47499" stroke="#929292" stroke-width="1.5" stroke-linecap="round" stroke-linejoin="round"/>
</svg>
