<svg width="24" height="24" viewBox="0 0 24 24" fill="none" xmlns="http://www.w3.org/2000/svg">
<path fill-rule="evenodd" clip-rule="evenodd" d="M12 2.75021C17.108 2.75021 21.25 6.89221 21.25 12.0002C21.25 17.1082 17.108 21.2502 12 21.2502C6.891 21.2502 2.75 17.1082 2.75 12.0002C2.75 6.89221 6.891 2.75021 12 2.75021Z" stroke="#929292" stroke-width="1.5" stroke-linecap="round" stroke-linejoin="round"/>
<path d="M7.52027 13.1974C6.85927 13.1974 6.32227 12.6604 6.32227 12.0004C6.32227 11.3404 6.85927 10.8024 7.52027 10.8024C8.18127 10.8024 8.71827 11.3404 8.71827 12.0004C8.71827 12.6604 8.18127 13.1974 7.52027 13.1974Z" fill="#929292"/>
<path d="M11.9998 13.1974C11.3388 13.1974 10.8018 12.6604 10.8018 12.0004C10.8018 11.3404 11.3388 10.8024 11.9998 10.8024C12.6608 10.8024 13.1978 11.3404 13.1978 12.0004C13.1978 12.6604 12.6608 13.1974 11.9998 13.1974Z" fill="#929292"/>
<path d="M16.4792 13.1974C15.8182 13.1974 15.2812 12.6604 15.2812 12.0004C15.2812 11.3404 15.8182 10.8024 16.4792 10.8024C17.1402 10.8024 17.6772 11.3404 17.6772 12.0004C17.6772 12.6604 17.1402 13.1974 16.4792 13.1974Z" fill="#929292"/>
</svg>
